<svg xmlns="http://www.w3.org/2000/svg" data-name="Layer 1" viewBox="0 0 64 80" x="0px" y="0px"><title>find web address</title><path d="M57,12H7a3,3,0,0,0-3,3V49a3,3,0,0,0,3,3H57a3,3,0,0,0,3-3V15A3,3,0,0,0,57,12ZM7,14H57a1,1,0,0,1,1,1v3H6V15A1,1,0,0,1,7,14ZM57,50H7a1,1,0,0,1-1-1V20H58V49A1,1,0,0,1,57,50Z"/><path d="M55,17a1,1,0,0,0,0-2h0a1,1,0,1,0,0,2Z"/><path d="M51,17a1,1,0,0,0,0-2h0a1,1,0,0,0,0,2Z"/><path d="M47,17a1,1,0,0,0,0-2h0a1,1,0,0,0,0,2Z"/><path d="M16.15,29.07a1,1,0,0,0-1.15.82l-.49,3-.62-1.24a1,1,0,0,0-.89-.56,1,1,0,0,0-.9.56l-.62,1.25-.49-3a1,1,0,0,0-2,.33l1,6a1,1,0,0,0,.84.83H11a1,1,0,0,0,.89-.56L13,34.32l1.09,2.22a1,1,0,0,0,1.05.55,1,1,0,0,0,.84-.83l1-6A1,1,0,0,0,16.15,29.07Z"/><path d="M26.13,29.07a1,1,0,0,0-1.14.82l-.5,3-.62-1.24a1,1,0,0,0-.89-.56,1,1,0,0,0-.9.56l-.62,1.25-.49-3a1,1,0,0,0-2,.33l1,6a1,1,0,0,0,.84.83H21a1,1,0,0,0,.9-.56L23,34.32l1.1,2.22A1,1,0,0,0,26,36.26l1-6A1,1,0,0,0,26.13,29.07Z"/><path d="M36.12,29.07a1,1,0,0,0-1.15.82l-.5,3-.61-1.24a1,1,0,0,0-1.8,0l-.62,1.25-.49-3a1,1,0,1,0-2,.33l1,6a1,1,0,0,0,.84.83H31a1,1,0,0,0,.9-.56L33,34.32l1.1,2.22a1,1,0,0,0,1.88-.28l1-6A1,1,0,0,0,36.12,29.07Z"/><path d="M52.09,39.2a8,8,0,0,0-3.5-13.93,7.92,7.92,0,0,0-6,1.12,8,8,0,0,0-2.34,11.06,7.93,7.93,0,0,0,10.17,2.84l2.76,4.25A1,1,0,0,0,54,45a1,1,0,0,0,.84-1.54ZM45.69,39a6,6,0,0,1,2.49-11.74A6,6,0,0,1,45.69,39Z"/><text x="0" y="79" fill="#000000" font-size="5px" font-weight="bold" font-family="'Helvetica Neue', Helvetica, Arial-Unicode, Arial, Sans-serif">Created by LUTFI GANI AL ACHMAD</text><text x="0" y="84" fill="#000000" font-size="5px" font-weight="bold" font-family="'Helvetica Neue', Helvetica, Arial-Unicode, Arial, Sans-serif">from the Noun Project</text></svg>