<svg xmlns="http://www.w3.org/2000/svg" xmlns:xlink="http://www.w3.org/1999/xlink" version="1.1" x="0px" y="0px" viewBox="0 0 100 125" enable-background="new 0 0 100 100" xml:space="preserve"><g><path d="M91.227,46.447L53.568,8.719c-1.984-1.633-5.232-1.633-7.218,0L8.693,46.447c-1.985,1.633-1.45,2.969,1.19,2.969h1.682   c4.919,0,4.799-0.226,4.799,2.252v39.633c0,0.389,0.059,0.764,0.159,1.125h22.038V61.013c0-1.492,1.29-2.702,2.88-2.702h17.037   c1.59,0,2.88,1.21,2.88,2.702v31.413h22.038c0.1-0.361,0.158-0.736,0.158-1.125V51.668c0-2.478-0.06-2.252,4.8-2.252h1.683   C92.676,49.416,93.212,48.08,91.227,46.447"/></g><text x="0" y="115" fill="#000000" font-size="5px" font-weight="bold" font-family="'Helvetica Neue', Helvetica, Arial-Unicode, Arial, Sans-serif">Created by Eric Miller</text><text x="0" y="120" fill="#000000" font-size="5px" font-weight="bold" font-family="'Helvetica Neue', Helvetica, Arial-Unicode, Arial, Sans-serif">from the Noun Project</text></svg>